<svg id="レイヤー_1" data-name="レイヤー 1" xmlns="http://www.w3.org/2000/svg" viewBox="0 0 203.7 62.88"><defs><style>.cls-1{fill:#f5cd00;}.cls-2{fill:#45a97f;}.cls-3{fill:#74a92d;}.cls-4{fill:#595757;}</style></defs><title>アートボード 1</title><path class="cls-1" d="M28.23,0c-.27,0-2,28.41-2,28.41a1.62,1.62,0,0,1-1.54,1.38s-16,1.4-16,1.63,15.92,1.64,15.92,1.64a1.6,1.6,0,0,1,1.54,1.38s1.73,28.44,2,28.44,2-28.41,2-28.41a1.6,1.6,0,0,1,1.54-1.37s16.32-1.41,16.32-1.64-16.28-1.64-16.28-1.64a1.6,1.6,0,0,1-1.54-1.37S28.51,0,28.23,0Z"/><path class="cls-2" d="M50.75,9.13c-8.31-6.46-22.12-2.58-30.83,8.65s-9,25.56-.72,32S41.33,52.38,50,41.15,59.07,15.58,50.75,9.13Zm-5.54,32C38.77,49.89,28,52.48,21.23,47s-7.1-17.11-.67-25.85,17.17-11.33,24-5.8S51.64,32.41,45.21,41.15Z"/><path class="cls-3" d="M8.68,42.63c-7-9.69-6.27-22.28,1.37-29A16.24,16.24,0,0,0,7.25,18C.69,32.9,14.09,46.13,14.09,46.13S6,33,12.49,21.1c5-9.22,14.81-11,14.81-11l.5-.32c-7.27-4.5-15.46-5.18-21.28-1C-2,15-2.2,29.3,6.12,40.83A32.47,32.47,0,0,0,16.4,50.16a13,13,0,0,1-.94-1A25.6,25.6,0,0,1,8.68,42.63Z"/><polygon class="cls-1" points="130.31 43.58 56.93 43.07 130.31 42.55 203.7 43.07 130.31 43.58"/><path class="cls-4" d="M75.53,25.6v6.21H73.79v-.43a27.18,27.18,0,0,1-5.2.32V30.37H69V25.6h-.38V24.37H76V25.6ZM68.59,38.44V37.16h6.33v-1H69V34.87h6V33.81H68.59V32.56H83.2v1.25H76.86v1.06H82.8v1.28H76.86v1H83.2v1.28Zm5.2-12.84H70.7v.95h3.09Zm0,1.89H70.7v1h3.09Zm0,1.92H70.7v.94a14.82,14.82,0,0,0,3.09-.24Zm2.86,2.4V24.37H82.8v7.44Zm4.42-5.87H78.38v4.3h2.69Z"/><path class="cls-4" d="M92.74,38.26H90.58c.59-1.12,1-3.47,1-6.63V24.77h2.05v6.82C93.65,34.88,93.27,37.2,92.74,38.26Zm5.86,0H95.49V24.75h2.05V36.2h1.31c2,0,3.49-1.62,3.49-5.43V27.2h2V31C104.34,35.88,102.28,38.23,98.6,38.23Z"/><path class="cls-4" d="M119.76,26.91h-7.15V25h7.15a21.62,21.62,0,0,0,6.13-.64v2A22.93,22.93,0,0,1,119.76,26.91Zm4.19,4.5v.3c0,3.94-2.24,6.45-7.94,6.45H113.2v-2h2.85c4.46,0,5.84-1.87,5.84-4.45v-.3h-9.28V29.48h9.28V26.36H124v3.12h2.34v1.93Z"/><path class="cls-4" d="M140.1,34.39v-2c3,0,5.84-1.38,5.84-4.14V27h-11.6V25H148v3.06C148,32.07,144.32,34.29,140.1,34.39Zm-5.76,3.89v-2c3.17-.26,4.5-2.59,4.5-5.15V29.48h2V31.2A6.83,6.83,0,0,1,134.34,38.28Z"/><path class="cls-4" d="M159.5,26.74v1.18h10.37v1.57h-4.33V30.9h4.33v6.27c0,1.09-.46,1.59-1.64,1.59h-2.12V37.28h1.51a.46.46,0,0,0,.49-.48V32.48h-2.64a2.91,2.91,0,0,0,2.12,2.42v1.71a4.89,4.89,0,0,1-2.81-2.06,4.75,4.75,0,0,1-3,2.06V34.9a2.54,2.54,0,0,0,2-2.42h-2.56v6.28H159.5V31.57c0,3.49-1.13,6.08-3.84,7.19V36.39c1-.59,1.75-1.59,1.92-3.7a6.63,6.63,0,0,1-1.92.86v-1.9a6.64,6.64,0,0,0,2-.93V28.88l-2-1.2v-2l2,1.25V25h5.31v-.93h2V25h5.37v1.7Zm4.37,2.75H159.5V30.9h4.37Z"/><path class="cls-4" d="M180.1,37h-.83v1.73h-1.52V24.37h4.59V26.1L181.59,30a4.34,4.34,0,0,1,.93,3v1.25C182.52,36.12,181.46,37,180.1,37Zm.88-4a3.94,3.94,0,0,0-.88-2.81l.71-4.1h-1.54v9h.61c.8,0,1.1-.46,1.1-1.28Zm9.86,5.52h-1.15a1.65,1.65,0,0,1-1.7-1.72v-3.3h-1.32c-.2,2.93-1.33,4.72-4,5.22V36.82c1.33-.26,2.07-1.26,2.23-3.28h-1.89V31.81h8.88v1.73h-2.19v2.82a.44.44,0,0,0,.45.43h.72a1.61,1.61,0,0,0,1.13-.35v1.85A2,2,0,0,1,190.84,38.56Zm-.08-10.19v1.71h-6.59V28.37h-1.34V25h3.56v-.87h2V25H192v3.39Zm-.49-1.68h-5.65v1.66h5.65Z"/><path class="cls-4" d="M70.93,16.2v3.27H69.78V16.32a5.28,5.28,0,0,1-1.3.91V15.85a5.1,5.1,0,0,0,2.45-3.35H68.48V11.4h1.26v-1h1.15v1h1.22v1A5.74,5.74,0,0,1,71,15l1.31,1.06v1.38Zm1.45,3.15V18.13h2v-4H72.59V12.88h1.75V10.41h1.2v2.47h1.75v1.24H75.54v4h2v1.22Z"/><path class="cls-4" d="M87.61,13.64v.93H80.17v-1c-.27.07-.55.13-.81.18V12.53a4.86,4.86,0,0,0,3.7-2.12h1.63a4.78,4.78,0,0,0,3.7,2.12V13.8C88.13,13.76,87.87,13.7,87.61,13.64Zm-.55,5.83-.31-.66a15.15,15.15,0,0,1-5.29.54h-2.1V18.27h.88L81,16.69H79.36V15.58h9v1.11H82.33l-.73,1.58a18.94,18.94,0,0,0,4.71-.39L85.92,17h1.33l1.14,2.44Zm-3.19-8a6.27,6.27,0,0,1-3.18,2H87A6.21,6.21,0,0,1,83.87,11.46Z"/><path class="cls-4" d="M90.47,19.35V10.57h8.8v1.09H91.69v6.6h7.58v1.09Zm5.26-2.91c-.54.86-1.61,1.44-3.37,1.58v-.93c1.49-.1,2.26-.65,2.57-1.39H92.36v-1H95.1V13.56H93.79a4.75,4.75,0,0,1-.55.93H92a6.61,6.61,0,0,0,1.23-2.59h1.11c0,.21-.09.42-.17.66h4.59v1H96.21V14.7H99v1H96.44c.38.85,1.17,1.29,2.58,1.39V18A4.08,4.08,0,0,1,95.73,16.44Z"/><path class="cls-4" d="M103.15,11.77v3.45c0,2.15-.71,3.44-2,4.25V17.94a3,3,0,0,0,1-2.18,5.26,5.26,0,0,1-1,.42V15a3.65,3.65,0,0,0,1-.41V12.91l-1-.51V11.19l1,.47v-.92h3.51v-.33h1.21v.33h3.33v1Zm1.15,7.57h-1.18a4.79,4.79,0,0,0,.63-1.69h1.12A5.4,5.4,0,0,1,104.3,19.34Zm5.21-5a4.05,4.05,0,0,0,.64.17v1l-.46-.12v2h-2.35v1.2c0,.61-.36,1-1.11,1h-.84v-.9h.47a.31.31,0,0,0,.34-.35v-.91h-2.34v-2a3.82,3.82,0,0,1-.48.15v-1a7,7,0,0,0,.69-.22l-.59-.88h.83l.35.54a3.86,3.86,0,0,0,.76-.75h-2v-.83h2.39a2,2,0,0,0,.08-.45h1a2.75,2.75,0,0,1-.09.45h3.31v.83h-2.09a2.69,2.69,0,0,0,.81.84l.44-.63h.87Zm-1,.55H105v.59h3.55Zm0,1.23H105v.58h3.55Zm-1.46-2.93h-.57a3.92,3.92,0,0,1-.83,1.07h2.13A3.51,3.51,0,0,1,107.09,13.18ZM109,19.34l-.66-1.69h1.14l.66,1.69Z"/><path class="cls-4" d="M112,11.56V10.41l2.26.83v1.15ZM112,14V12.87l2.26.8v1.18Zm0,5.45V18a3.13,3.13,0,0,0,1.3-2.5h1.13A4.42,4.42,0,0,1,112,19.47Zm7.88,0-.21-.68c-1,.5-1.87.56-4.94.56V18.13h.62l.94-2.76h-1.56V14.23h2.56V12.36H115V11.22h2.29v-.81h1.19v.81h2.3v1.14h-2.3v1.87H121v1.14h-3.46l-1,2.75a6.05,6.05,0,0,0,2.69-.43l-.5-1.62H120l1.07,3.4Z"/><path class="cls-4" d="M127.46,15.61a7.4,7.4,0,0,1-4.59,3.86V18.1A5.41,5.41,0,0,0,126.73,13V10.41H128v2.42a5.64,5.64,0,0,0,3.91,5.27v1.37A7,7,0,0,1,127.46,15.61Z"/><path class="cls-4" d="M143.9,11.33v3.84h-1.08v-.26a17.27,17.27,0,0,1-3.21.19v-.82h.24V11.33h-.24v-.76h4.59v.76Zm-4.29,7.94v-.79h3.92v-.62h-3.68v-.8h3.68v-.65h-3.92v-.77h9v.77h-3.92v.65h3.67v.8h-3.67v.62h3.92v.79Zm3.21-7.94h-1.91v.59h1.91Zm0,1.17h-1.91v.62h1.91Zm0,1.19h-1.91v.58a9.22,9.22,0,0,0,1.91-.15Zm1.77,1.48v-4.6h3.8v4.6Zm2.74-3.63h-1.67V14.2h1.67Z"/><path class="cls-4" d="M152,19.16h-1.34a9.89,9.89,0,0,0,.64-4.1V10.82h1.26V15A10.7,10.7,0,0,1,152,19.16Zm3.62,0h-1.92V10.81h1.27v7.07h.81c1.26,0,2.16-1,2.16-3.35V12.32h1.23v2.36C159.13,17.69,157.86,19.14,155.58,19.14Z"/><path class="cls-4" d="M166.08,12.15h-4.42V11h4.42a13.17,13.17,0,0,0,3.79-.4v1.22A14.07,14.07,0,0,1,166.08,12.15Zm2.59,2.78v.18c0,2.44-1.38,4-4.9,4H162V17.87h1.76c2.76,0,3.61-1.16,3.61-2.76v-.18h-5.74v-1.2h5.74v-1.2h1.27v1.2h1.45v1.2Z"/><path class="cls-4" d="M176.71,16.77V15.5c1.88,0,3-.85,3-2.56v-.73h-7.17V11H181v1.89C181,15.33,179.33,16.71,176.71,16.77Zm-4.19,2.4V17.92a2.91,2.91,0,0,0,2.78-3.18v-1h1.24V14.8A4.21,4.21,0,0,1,172.52,19.17Z"/><path class="cls-4" d="M191.37,13.64v.93h-7.44v-1l-.81.18V12.53a4.84,4.84,0,0,0,3.7-2.12h1.63a4.78,4.78,0,0,0,3.7,2.12V13.8C191.9,13.76,191.63,13.7,191.37,13.64Zm-.54,5.83-.32-.66a15.12,15.12,0,0,1-5.28.54h-2.11V18.27H184l.71-1.58h-1.59V15.58h9v1.11H186.1l-.73,1.58a18.9,18.9,0,0,0,4.7-.39l-.39-.85H191l1.14,2.44Zm-3.2-8a6.28,6.28,0,0,1-3.17,2h6.33A6.21,6.21,0,0,1,187.63,11.46Z"/><path class="cls-3" d="M84.58,53.48h-1c-1.46,0-1.93-.76-1.93-1.68v-.25h.88v.21c0,.46.24.84,1,.84h1c.79,0,1-.32,1-.68v-.18c0-.49-.29-.63-.91-.67L83.2,51c-1-.05-1.5-.38-1.5-1.25v-.27c0-.86.53-1.46,1.84-1.46h1.08c1.13,0,1.76.59,1.76,1.54v.26h-.87v-.16c0-.46-.24-.77-.93-.77h-1c-.73,0-1,.27-1,.62v.15c0,.42.21.55.89.6l1.44.1c1.1.08,1.6.47,1.6,1.29v.41C86.5,52.87,86,53.48,84.58,53.48Z"/><path class="cls-3" d="M90.15,49.9v2c0,.51.22.7.7.7h.9v.84h-1.1c-.94,0-1.35-.49-1.35-1.44V49.9h-1v-.85h1v-1h.85v1H91.9v.85Z"/><path class="cls-3" d="M93.48,53.44v-1h1.1v1Z"/><path class="cls-3" d="M96.23,53.44V48.05h.88v4.52h3.33v.87Z"/><path class="cls-3" d="M105.38,53.44V53a1.49,1.49,0,0,1-1.06.42h-.42c-1.1,0-1.61-.61-1.61-1.72V49.05h.84v2.6c0,.63.25,1,.89,1h.34a.91.91,0,0,0,1-1V49.05h.84v4.39Z"/><path class="cls-3" d="M110.79,53.46H110a1.52,1.52,0,0,1-1.67-1.74v-.94A1.56,1.56,0,0,1,110,49h.85a1.49,1.49,0,0,1,1.67,1.57v.19h-.89v-.13c0-.4-.23-.8-.94-.8h-.55a.88.88,0,0,0-1,1v.84a.86.86,0,0,0,1,.95h.55c.6,0,.94-.29.94-.8v-.14h.89v.21A1.48,1.48,0,0,1,110.79,53.46Z"/><path class="cls-3" d="M114.54,49.07v-1h.86v1Zm0,4.37V49.57h.84v3.87Z"/><path class="cls-3" d="M121.77,53.45A.82.82,0,0,1,121,53a1.55,1.55,0,0,1-1.17.4H119c-1.09,0-1.53-.55-1.53-1.25V52c0-.88.61-1.26,1.7-1.26h1.66v-.32c0-.36-.27-.63-.9-.63h-.66c-.51,0-.76.18-.79.52h-.86c0-.82.55-1.27,1.64-1.27h.67c1.21,0,1.74.53,1.74,1.38v1.71c0,.25.08.44.27.44H122v.89Zm-.94-2h-1.64c-.68,0-.87.23-.87.57v.12c0,.4.36.54.78.54h.7c.65,0,.9-.19,1-.54Z"/><path class="cls-3" d="M124.31,49.64h-.61a1,1,0,0,0,.43-.85h-.55v-1h1.09v1A1.23,1.23,0,0,1,124.31,49.64Z"/><path class="cls-3" d="M128.92,53.46h-1.18c-1.16,0-1.49-.57-1.49-1.38h.89c0,.35.07.64.78.64h.85c.56,0,.8-.14.8-.55v-.09c0-.31-.17-.53-.82-.53h-.94c-1,0-1.5-.37-1.5-1.16v-.13c0-.64.41-1.23,1.53-1.23H129c1,0,1.45.45,1.45,1.27h-.9c0-.37-.23-.52-.76-.52H128c-.63,0-.81.23-.81.48v.1c0,.3.13.49.79.49h1c1.13,0,1.49.52,1.49,1.21v.12C130.49,53,130.05,53.46,128.92,53.46Z"/><path class="cls-3" d="M141.83,53.44V51.05h-2.72v2.39h-.88V48.05h.88v2.13h2.72V48.05h.88v5.39Z"/><path class="cls-3" d="M147.15,53.46h-.66a1.51,1.51,0,0,1-1.73-1.71v-1A1.54,1.54,0,0,1,146.49,49h.66a1.54,1.54,0,0,1,1.73,1.71v1A1.5,1.5,0,0,1,147.15,53.46Zm.89-2.65c0-.65-.38-.92-1-.92h-.39c-.68,0-1,.29-1,.92v.87c0,.65.37.92,1,.92H147c.64,0,1-.25,1-.92Z"/><path class="cls-3" d="M153.46,53.46h-1.18c-1.16,0-1.49-.57-1.49-1.38h.89c0,.35.07.64.78.64h.85c.56,0,.8-.14.8-.55v-.09c0-.31-.17-.53-.82-.53h-.94c-1,0-1.5-.37-1.5-1.16v-.13c0-.64.41-1.23,1.53-1.23h1.13c1,0,1.45.45,1.45,1.27h-.9c0-.37-.23-.52-.76-.52h-.72c-.63,0-.82.23-.82.48v.1c0,.3.14.49.79.49h1c1.13,0,1.49.52,1.49,1.21v.12C155,53,154.58,53.46,153.46,53.46Z"/><path class="cls-3" d="M159.48,53.44H159A1.53,1.53,0,0,1,158,53v1.26h-.86v-5.2H158v.42a1.56,1.56,0,0,1,1.07-.42h.44a1.55,1.55,0,0,1,1.69,1.71v1A1.51,1.51,0,0,1,159.48,53.44Zm.86-2.57a.88.88,0,0,0-1-1h-.43a1,1,0,0,0-1,1v.7a.94.94,0,0,0,1,1h.43a.85.85,0,0,0,1-1Z"/><path class="cls-3" d="M163.24,49.07v-1h.86v1Zm0,4.37V49.57h.84v3.87Z"/><path class="cls-3" d="M167.91,49.9v2c0,.51.21.7.69.7h.91v.84h-1.1c-.94,0-1.35-.49-1.35-1.44V49.9h-1v-.85h1v-1h.85v1h1.74v.85Z"/><path class="cls-3" d="M175.9,53.45a.82.82,0,0,1-.75-.41,1.55,1.55,0,0,1-1.17.4h-.84c-1.09,0-1.53-.55-1.53-1.25V52c0-.88.61-1.26,1.7-1.26H175v-.32c0-.36-.27-.63-.91-.63h-.65c-.51,0-.77.18-.79.52h-.86c.05-.82.55-1.27,1.64-1.27h.66c1.22,0,1.75.53,1.75,1.38v1.71c0,.25.08.44.27.44h0v.89Zm-.93-2h-1.64c-.68,0-.88.23-.88.57v.12c0,.4.37.54.79.54h.7c.65,0,.9-.19,1-.54Z"/><path class="cls-3" d="M178.14,53.44V48.05H179v5.39Z"/></svg>