<svg id="レイヤー_1" data-name="レイヤー 1" xmlns="http://www.w3.org/2000/svg" viewBox="0 0 114.35 114.23"><defs><style>.cls-1{fill:#f5cd00}.cls-2{fill:#45a97f}.cls-3{fill:#74a92d}.cls-4{fill:#595757}</style></defs><title>アートボード 8</title><path class="cls-1" d="M57 0c-.3 0-2.18 30.84-2.18 30.84a1.74 1.74 0 0 1-1.67 1.5s-17.32 1.52-17.32 1.78 17.28 1.77 17.28 1.77a1.75 1.75 0 0 1 1.67 1.5S56.66 68.26 57 68.26s2.18-30.84 2.18-30.84a1.74 1.74 0 0 1 1.67-1.49s17.72-1.52 17.72-1.78-17.68-1.77-17.68-1.77a1.76 1.76 0 0 1-1.67-1.5S57.3 0 57 0z"/><path class="cls-2" d="M81.45 9.91c-9-7-24-2.8-33.48 9.39s-9.8 27.75-.77 34.76 24 2.8 33.48-9.39 9.8-27.76.77-34.76zm-6 34.76c-7 9.49-18.64 12.31-26 6.3s-7.71-18.57-.73-28.06 18.64-12.31 26-6.3 7.7 18.57.71 28.06z"/><path class="cls-3" d="M35.77 46.28C28.18 35.76 29 22.09 37.26 14.82a17.71 17.71 0 0 0-3 4.76c-7.12 16.14 7.42 30.5 7.42 30.5s-8.73-14.31-1.73-27.17c5.45-10 16.44-12.17 16.62-12.28C48.64 5.74 39.75 5 33.43 9.55 24.16 16.24 24 31.81 33 44.32a35.38 35.38 0 0 0 11.15 10.14c-.36-.36-.7-.74-1-1.12a28.1 28.1 0 0 1-7.38-7.06z"/><path class="cls-1" d="M57.18 105.92L0 105.52l57.18-.4 57.17.4-57.17.4z"/><path class="cls-4" d="M14.5 91.91v4.84h-1.36v-.34a20.74 20.74 0 0 1-4.05.25v-1h.3v-3.75h-.3V91h5.78v1zm-5.41 10v-1H14v-.79H9.39v-1H14v-.82H9.09v-1h11.38v1h-4.94v.82h4.63v1h-4.63v.79h4.94v1zm4.05-10h-2.41v.74h2.41zm0 1.48h-2.41v.77h2.41zm0 1.49h-2.41v.74a11.56 11.56 0 0 0 2.41-.19zm2.23 1.87V91h4.79v5.8zm3.44-4.57h-2.09v3.35h2.09zm9.09 9.6h-1.68a12.65 12.65 0 0 0 .8-5.17v-5.34h1.59v5.31a13.63 13.63 0 0 1-.71 5.2zm4.57 0h-2.42V91.25h1.59v8.92h1c1.58 0 2.71-1.26 2.71-4.23v-2.78h1.56v3c.03 3.76-1.58 5.59-4.44 5.59zM49 92.94h-5.62v-1.46H49a16.93 16.93 0 0 0 4.78-.5v1.53a18 18 0 0 1-4.78.43zm3.27 3.5v.24c0 3.06-1.75 5-6.19 5h-2.24v-1.56h2.22c3.48 0 4.55-1.46 4.55-3.46v-.24h-7.23v-1.49h7.23v-2.42h1.61v2.42H54v1.51zm12.53 2.32v-1.6c2.37 0 4.55-1.07 4.55-3.23V93h-9v-1.55H71v2.38c0 3.17-2.91 4.85-6.2 4.93zm-4.49 3v-1.57a3.69 3.69 0 0 0 3.51-4v-1.26h1.57v1.35a5.32 5.32 0 0 1-5.08 5.51zm19.61-8.96v.92H88v1.22h-3.38V96H88v4.89c0 .85-.37 1.23-1.29 1.23h-1.64V101h1.17a.36.36 0 0 0 .38-.38v-3.34h-2.05a2.27 2.27 0 0 0 1.64 1.88v1.33A3.79 3.79 0 0 1 84 98.88a3.68 3.68 0 0 1-2.33 1.61v-1.33a2 2 0 0 0 1.58-1.88h-2v4.88h-1.33v-5.6c0 2.72-.89 4.74-3 5.6v-1.84c.82-.46 1.36-1.24 1.5-2.88a5.17 5.17 0 0 1-1.5.67v-1.48a5.22 5.22 0 0 0 1.54-.73v-1.43l-1.54-.93V92l1.54 1v-1.52h4.14v-.72h1.52v.72h4.19v1.32zm3.4 2.14h-3.4V96h3.4zM96 100.82h-.65v1.34h-1.22V91h3.58v1.3l-.58 3.06a3.4 3.4 0 0 1 .72 2.34v1c0 1.41-.85 2.12-1.85 2.12zm.68-3.11a3.1 3.1 0 0 0-.68-2.19l.55-3.19h-1.2v7h.47c.63 0 .86-.36.86-1zm7.68 4.3h-.9a1.29 1.29 0 0 1-1.32-1.34V98.1h-1c-.15 2.28-1 3.68-3.08 4.06v-1.51c1-.2 1.61-1 1.73-2.55h-1.53v-1.35h6.92v1.35h-1.71v2.19a.34.34 0 0 0 .35.34h.56a1.24 1.24 0 0 0 .89-.28v1.45a1.54 1.54 0 0 1-.94.2zm-.06-7.94v1.34h-5.17v-1.34h-1v-2.64h2.78v-.67h1.57v.67h2.83v2.64zm-.39-1.31h-4.4v1.3h4.4zm-93-8.17v2.55H10v-2.46a4 4 0 0 1-1 .71v-1.08a3.94 3.94 0 0 0 1.91-2.6H9v-.86h1v-.77h.89v.77h.95v.81a4.41 4.41 0 0 1-.86 2l1 .84v1.07zM12 87v-1h1.53v-3h-1.32v-1h1.36v-1.92h.93V82h1.37v1H14.5v3.12H16v1zm11.9-4.4v.72h-5.79v-.74l-.63.14v-1a3.77 3.77 0 0 0 2.88-1.65h1.27a3.71 3.71 0 0 0 2.88 1.65v1zm-.42 4.54l-.25-.51a12.09 12.09 0 0 1-4.11.41h-1.64v-.84h.68l.56-1.2h-1.24v-.86h7V85H19.8l-.57 1.23a15 15 0 0 0 3.67-.3l-.31-.66h1l.88 1.9zM21 80.9a4.91 4.91 0 0 1-2.47 1.56h4.93A4.81 4.81 0 0 1 21 80.9zm5.13 6.1v-6.79H33v.84h-5.92v5.14H33V87zm4.11-2.26A3.2 3.2 0 0 1 27.61 86v-.72c1.15-.08 1.75-.51 2-1.09h-2v-.78h2.13v-.89h-1a3.6 3.6 0 0 1-.43.73h-1a5.09 5.09 0 0 0 1-2h.87c0 .16-.07.33-.13.51h3.57v.78h-2v.89h2.18v.78h-2c.3.66.92 1 2 1.09v.7a3.16 3.16 0 0 1-2.56-1.22zm5.76-3.6v2.69a3.48 3.48 0 0 1-1.59 3.31V86a2.37 2.37 0 0 0 .76-1.71 3.74 3.74 0 0 1-.76.34v-.94a3 3 0 0 0 .78-.31V82l-.78-.39v-.95l.78.37v-.71h2.73v-.26h.94v.26h2.59v.8zm.9 5.9H36a3.82 3.82 0 0 0 .49-1.32h.87a4.35 4.35 0 0 1-.45 1.28zm4.1-3.91a3.32 3.32 0 0 0 .49.14V84l-.35-.09v1.53h-1.87v.94c0 .48-.27.75-.86.75h-.66v-.71h.37a.25.25 0 0 0 .27-.27v-.71h-1.82V83.9l-.38.11v-.75l.54-.17-.46-.69h.64l.28.42a2.75 2.75 0 0 0 .59-.59h-1.56v-.64h1.87a1.82 1.82 0 0 0 .06-.35H39a3.09 3.09 0 0 1-.07.35h2.57v.64h-1.66a2 2 0 0 0 .63.66l.35-.49h.67zm-.75.43h-2.8V84h2.77zm0 1h-2.8V85h2.77zm-1.14-2.29h-.44a3 3 0 0 1-.65.84h1.66a2.66 2.66 0 0 1-.6-.88zM40.58 87l-.51-1.32H41l.46 1.32zm2.32-6v-.9l1.76.64v.9zm0 1.91V82l1.76.63v.92zm0 4.25V86a2.5 2.5 0 0 0 1-2h.89a3.46 3.46 0 0 1-1.89 3.14zm6.14 0l-.17-.54c-.81.4-1.45.44-3.84.44v-1h.48l.73-2.15H45v-.88h2V81.6h-1.76v-.89H47v-.63h1v.63h1.79v.89H48v1.46h2v.88h-2.7l-.74 2.15a4.88 4.88 0 0 0 2.1-.34l-.4-1.26h.9l.84 2.65zM55 84.13a5.74 5.74 0 0 1-3.58 3v-1.06a4.21 4.21 0 0 0 3-4v-2h1V82a4.39 4.39 0 0 0 3 4.11v1.07A5.43 5.43 0 0 1 55 84.13zm12.76-3.33v3h-.84v-.21a12.21 12.21 0 0 1-2.5.16v-.65h.18v-2.3h-.18v-.59H68v.59zM64.42 87v-.62h3v-.48H64.6v-.62h2.87v-.51h-3v-.6h7v.6h-3v.51h2.86v.62H68.4v.48h3V87zm2.5-6.18h-1.49v.45h1.49zm0 .91h-1.49v.48h1.49zm0 .92h-1.49v.46a6.88 6.88 0 0 0 1.49-.11zm1.38 1.16v-3.6h3v3.58zM70.43 81h-1.3v2h1.3zM74 86.9h-1a7.73 7.73 0 0 0 .49-3.19V80.4h1v3.28A8.51 8.51 0 0 1 74 86.9zm2.82 0h-1.45v-6.51h1v5.51H77c1 0 1.67-.78 1.67-2.61v-1.72h1v1.83c-.04 2.35-1.04 3.48-2.81 3.48zM85 81.43h-3.4v-.9H85a10.53 10.53 0 0 0 3-.31v1a11.29 11.29 0 0 1-3 .21zm2 2.17v.14c0 1.9-1.08 3.11-3.82 3.11h-1.3v-1h1.37c2.16 0 2.82-.91 2.82-2.15v-.1H81.6v-.94h4.47v-.93h1v.93h1.13v.94zm6.33 1.4v-1c1.46 0 2.32-.66 2.32-2v-.57h-5.59v-1h6.59V82c0 1.91-1.29 3-3.32 3zm-3.27 1.9v-1a2.27 2.27 0 0 0 2.16-2.48v-.79h1v.84a3.27 3.27 0 0 1-3.16 3.43zm14.68-4.3v.72H99v-.74l-.63.14v-1a3.77 3.77 0 0 0 2.88-1.65h1.27a3.71 3.71 0 0 0 2.88 1.65v1zm-.42 4.54l-.25-.51A12.09 12.09 0 0 1 100 87h-1.68v-.8H99l.56-1.2h-1.24v-.86h7V85h-4.72l-.56 1.23a14.36 14.36 0 0 0 3.66-.3l-.3-.66h1l.88 1.9zm-2.49-6.24a4.91 4.91 0 0 1-2.47 1.56h4.93a4.81 4.81 0 0 1-2.46-1.56z"/><path class="cls-3" d="M21.54 113.63h-.78c-1.14 0-1.5-.59-1.5-1.31v-.19h.68v.16c0 .37.18.66.81.66h.81c.62 0 .76-.25.76-.53v-.14c0-.38-.22-.49-.7-.52l-1.15-.06c-.74 0-1.17-.3-1.17-1v-.21c0-.67.41-1.14 1.44-1.14h.83c.88 0 1.38.46 1.38 1.2v.2h-.68v-.12c0-.35-.19-.6-.72-.6h-.82c-.57 0-.75.21-.75.49v.11c0 .32.17.43.69.47l1.12.08c.86.06 1.25.36 1.25 1v.32c-.04.66-.39 1.13-1.5 1.13zm4.35-2.78v1.55c0 .4.16.55.54.55h.7v.65h-.86c-.73 0-1-.38-1-1.12v-1.63h-.75v-.67h.75v-.78h.66v.78h1.35v.67zm2.59 2.75v-.78h.86v.78zm2.14 0v-4.2h.68v3.52h2.6v.68zm7.13 0v-.32a1.2 1.2 0 0 1-.82.32h-.33c-.86 0-1.25-.48-1.25-1.33v-2.09H36v2c0 .49.19.74.69.74H37a.71.71 0 0 0 .8-.78v-2h.66v3.42zm4.25.02h-.65c-.87 0-1.3-.47-1.3-1.36v-.73a1.22 1.22 0 0 1 1.3-1.37H42a1.16 1.16 0 0 1 1.29 1.23v.15h-.69v-.11c0-.31-.18-.61-.73-.61h-.43a.68.68 0 0 0-.75.75v.65a.68.68 0 0 0 .75.75h.43c.47 0 .73-.24.73-.63v-.11h.69v.16a1.15 1.15 0 0 1-1.29 1.23zm2.89-3.42v-.8h.66v.8zm0 3.4v-3h.65v3zm5.63.01a.63.63 0 0 1-.59-.32 1.25 1.25 0 0 1-.92.31h-.65c-.85 0-1.19-.42-1.19-1v-.16c0-.68.47-1 1.32-1h1.3v-.25c0-.28-.21-.49-.71-.49h-.51c-.39 0-.59.14-.61.41h-.67c0-.64.42-1 1.28-1h.51c1 0 1.36.42 1.36 1.08v1.33c0 .2.07.34.21.34h.05v.7zm-.73-1.61h-1.28c-.53 0-.68.18-.68.45v.09c0 .31.28.42.61.42H49c.5 0 .7-.15.8-.42zm2.71-1.36H52a.79.79 0 0 0 .34-.66h-.43v-.77h.85v.79a1 1 0 0 1-.26.64zm3.59 2.98h-.92c-.9 0-1.16-.44-1.16-1.08h.7c0 .28 0 .5.6.5H56c.43 0 .62-.11.62-.43v-.07c0-.24-.13-.41-.64-.41h-.74c-.8 0-1.16-.29-1.16-.9v-.11c0-.49.32-1 1.19-1h.88c.8 0 1.13.36 1.13 1h-.7c0-.28-.18-.4-.59-.4h-.59c-.49 0-.63.18-.63.38v.07c0 .24.1.39.62.39h.77c.87 0 1.15.4 1.15.93v.1c0 .63-.31 1.03-1.22 1.03zm10.06-.02v-1.86H64v1.86h-.69v-4.2H64v1.66h2.12v-1.66h.69v4.2zm4.14.02h-.51a1.18 1.18 0 0 1-1.35-1.33v-.79a1.21 1.21 0 0 1 1.35-1.34h.51a1.21 1.21 0 0 1 1.35 1.34v.79a1.17 1.17 0 0 1-1.35 1.33zm.69-2.07c0-.5-.29-.71-.79-.71h-.3c-.54 0-.8.22-.8.71v.68c0 .51.29.72.8.72h.3c.5 0 .79-.2.79-.72zm4.23 2.07h-.92c-.9 0-1.16-.44-1.16-1.08h.69c0 .28.06.5.61.5h.66c.44 0 .63-.11.63-.43v-.07c0-.24-.14-.41-.64-.41h-.74c-.81 0-1.16-.29-1.16-.9v-.11c0-.49.32-1 1.19-1h.88c.8 0 1.12.36 1.12 1h-.7c0-.28-.18-.4-.59-.4h-.56c-.49 0-.63.18-.63.38v.07c0 .24.1.39.61.39h.77c.88 0 1.16.4 1.16.93v.1c0 .63-.35 1.03-1.22 1.03zm4.69-.02h-.34a1.19 1.19 0 0 1-.84-.35v1h-.66v-4h.66v.33a1.24 1.24 0 0 1 .84-.33h.34a1.21 1.21 0 0 1 1.31 1.34v.77a1.17 1.17 0 0 1-1.31 1.24zm.66-2a.68.68 0 0 0-.75-.76h-.33a.74.74 0 0 0-.78.78v.55a.74.74 0 0 0 .78.77h.33a.66.66 0 0 0 .75-.74zm2.27-1.4v-.8h.66v.8zm0 3.4v-3h.65v3zm3.63-2.75v1.55c0 .4.17.55.55.55h.7v.65h-.86c-.73 0-1-.38-1-1.12v-1.63h-.75v-.67h.75v-.78h.65v.78h1.36v.67zm6.23 2.76a.65.65 0 0 1-.59-.32 1.21 1.21 0 0 1-.91.31h-.65c-.85 0-1.19-.42-1.19-1v-.16c0-.68.47-1 1.32-1H92v-.25c0-.28-.21-.49-.71-.49h-.51c-.4 0-.6.14-.62.41h-.67c.05-.64.43-1 1.28-1h.52c.94 0 1.36.42 1.36 1.08v1.33c0 .2.06.34.21.34v.7zM92 112h-1.31c-.53 0-.68.18-.68.45v.09c0 .31.28.42.61.42h.55c.5 0 .7-.15.8-.42zm2.43 1.6v-4.2h.67v4.2z"/></svg>