<svg id="レイヤー_1" data-name="レイヤー 1" xmlns="http://www.w3.org/2000/svg" viewBox="0 0 203.7 62.88"><defs><style>.cls-1{fill:#f5cd00}.cls-2{fill:#45a97f}.cls-3{fill:#74a92d}.cls-4{fill:#595757}</style></defs><title>アートボード 1</title><path class="cls-1" d="M28.23 0c-.27 0-2 28.41-2 28.41a1.62 1.62 0 0 1-1.54 1.38s-16 1.4-16 1.63 15.92 1.64 15.92 1.64a1.6 1.6 0 0 1 1.54 1.38s1.73 28.44 2 28.44 2-28.41 2-28.41a1.6 1.6 0 0 1 1.54-1.37s16.32-1.41 16.32-1.64-16.28-1.64-16.28-1.64a1.6 1.6 0 0 1-1.54-1.37S28.51 0 28.23 0z"/><path class="cls-2" d="M50.75 9.13c-8.31-6.46-22.12-2.58-30.83 8.65s-9 25.56-.72 32 22.13 2.6 30.8-8.63 9.07-25.57.75-32.02zm-5.54 32C38.77 49.89 28 52.48 21.23 47s-7.1-17.11-.67-25.85 17.17-11.33 24-5.8 7.08 17.06.65 25.8z"/><path class="cls-3" d="M8.68 42.63c-7-9.69-6.27-22.28 1.37-29A16.24 16.24 0 0 0 7.25 18c-6.56 14.9 6.84 28.13 6.84 28.13S6 33 12.49 21.1c5-9.22 14.81-11 14.81-11l.5-.32c-7.27-4.5-15.46-5.18-21.28-1C-2 15-2.2 29.3 6.12 40.83a32.47 32.47 0 0 0 10.28 9.33 13 13 0 0 1-.94-1 25.6 25.6 0 0 1-6.78-6.53z"/><path class="cls-1" d="M130.31 43.58l-73.38-.51 73.38-.52 73.39.52-73.39.51z"/><path class="cls-4" d="M75.53 25.6v6.21h-1.74v-.43a27.18 27.18 0 0 1-5.2.32v-1.33H69V25.6h-.38v-1.23H76v1.23zm-6.94 12.84v-1.28h6.33v-1H69v-1.29h6v-1.06h-6.41v-1.25H83.2v1.25h-6.34v1.06h5.94v1.28h-5.94v1h6.34v1.28zm5.2-12.84H70.7v.95h3.09zm0 1.89H70.7v1h3.09zm0 1.92H70.7v.94a14.82 14.82 0 0 0 3.09-.24zm2.86 2.4v-7.44h6.15v7.44zm4.42-5.87h-2.69v4.3h2.69zm11.67 12.32h-2.16c.59-1.12 1-3.47 1-6.63v-6.86h2.05v6.82c.02 3.29-.36 5.61-.89 6.67zm5.86 0h-3.11V24.75h2.05V36.2h1.31c2 0 3.49-1.62 3.49-5.43V27.2h2V31c0 4.88-2.06 7.23-5.74 7.23zm21.16-11.35h-7.15V25h7.15a21.62 21.62 0 0 0 6.13-.64v2a22.93 22.93 0 0 1-6.13.55zm4.19 4.5v.3c0 3.94-2.24 6.45-7.94 6.45h-2.81v-2h2.85c4.46 0 5.84-1.87 5.84-4.45v-.3h-9.28v-1.93h9.28v-3.12H124v3.12h2.34v1.93zm16.15 2.98v-2c3 0 5.84-1.38 5.84-4.14V27h-11.6v-2H148v3.06c0 4.01-3.68 6.23-7.9 6.33zm-5.76 3.89v-2c3.17-.26 4.5-2.59 4.5-5.15v-1.65h2v1.72a6.83 6.83 0 0 1-6.5 7.08zm25.16-11.54v1.18h10.37v1.57h-4.33v1.41h4.33v6.27c0 1.09-.46 1.59-1.64 1.59h-2.12v-1.48h1.51a.46.46 0 0 0 .49-.48v-4.32h-2.64a2.91 2.91 0 0 0 2.12 2.42v1.71a4.89 4.89 0 0 1-2.81-2.06 4.75 4.75 0 0 1-3 2.06V34.9a2.54 2.54 0 0 0 2-2.42h-2.56v6.28h-1.72v-7.19c0 3.49-1.13 6.08-3.84 7.19v-2.37c1-.59 1.75-1.59 1.92-3.7a6.63 6.63 0 0 1-1.92.86v-1.9a6.64 6.64 0 0 0 2-.93v-1.84l-2-1.2v-2l2 1.25V25h5.31v-.93h2V25h5.37v1.7zm4.37 2.75h-4.37v1.41h4.37zM180.1 37h-.83v1.73h-1.52V24.37h4.59v1.73l-.75 3.9a4.34 4.34 0 0 1 .93 3v1.25c0 1.87-1.06 2.75-2.42 2.75zm.88-4a3.94 3.94 0 0 0-.88-2.81l.71-4.1h-1.54v9h.61c.8 0 1.1-.46 1.1-1.28zm9.86 5.52h-1.15a1.65 1.65 0 0 1-1.7-1.72v-3.3h-1.32c-.2 2.93-1.33 4.72-4 5.22v-1.9c1.33-.26 2.07-1.26 2.23-3.28h-1.89v-1.73h8.88v1.73h-2.19v2.82a.44.44 0 0 0 .45.43h.72a1.61 1.61 0 0 0 1.13-.35v1.85a2 2 0 0 1-1.16.27zm-.08-10.19v1.71h-6.59v-1.67h-1.34V25h3.56v-.87h2V25H192v3.39zm-.49-1.68h-5.65v1.66h5.65zM70.93 16.2v3.27h-1.15v-3.15a5.28 5.28 0 0 1-1.3.91v-1.38a5.1 5.1 0 0 0 2.45-3.35h-2.45v-1.1h1.26v-1h1.15v1h1.22v1A5.74 5.74 0 0 1 71 15l1.31 1.06v1.38zm1.45 3.15v-1.22h2v-4h-1.79v-1.25h1.75v-2.47h1.2v2.47h1.75v1.24h-1.75v4h2v1.22zm15.23-5.71v.93h-7.44v-1c-.27.07-.55.13-.81.18v-1.22a4.86 4.86 0 0 0 3.7-2.12h1.63a4.78 4.78 0 0 0 3.7 2.12v1.27c-.26-.04-.52-.1-.78-.16zm-.55 5.83l-.31-.66a15.15 15.15 0 0 1-5.29.54h-2.1v-1.08h.88l.76-1.58h-1.64v-1.11h9v1.11h-6.03l-.73 1.58a18.94 18.94 0 0 0 4.71-.39l-.39-.88h1.33l1.14 2.44zm-3.19-8a6.27 6.27 0 0 1-3.18 2H87a6.21 6.21 0 0 1-3.13-2.01zm6.6 7.88v-8.78h8.8v1.09h-7.58v6.6h7.58v1.09zm5.26-2.91c-.54.86-1.61 1.44-3.37 1.58v-.93c1.49-.1 2.26-.65 2.57-1.39h-2.57v-1h2.74v-1.14h-1.31a4.75 4.75 0 0 1-.55.93H92a6.61 6.61 0 0 0 1.23-2.59h1.11c0 .21-.09.42-.17.66h4.59v1h-2.55v1.14H99v1h-2.56c.38.85 1.17 1.29 2.58 1.39V18a4.08 4.08 0 0 1-3.29-1.56zm7.42-4.67v3.45c0 2.15-.71 3.44-2 4.25v-1.53a3 3 0 0 0 1-2.18 5.26 5.26 0 0 1-1 .42V15a3.65 3.65 0 0 0 1-.41v-1.68l-1-.51v-1.21l1 .47v-.92h3.51v-.33h1.21v.33h3.33v1zm1.15 7.57h-1.18a4.79 4.79 0 0 0 .63-1.69h1.12a5.4 5.4 0 0 1-.57 1.69zm5.21-5a4.05 4.05 0 0 0 .64.17v1l-.46-.12v2h-2.35v1.2c0 .61-.36 1-1.11 1h-.84v-.9h.47a.31.31 0 0 0 .34-.35v-.91h-2.34v-2a3.82 3.82 0 0 1-.48.15v-1a7 7 0 0 0 .69-.22l-.59-.88h.83l.35.54a3.86 3.86 0 0 0 .76-.75h-2v-.83h2.39a2 2 0 0 0 .08-.45h1a2.75 2.75 0 0 1-.09.45h3.31v.83h-2.09a2.69 2.69 0 0 0 .81.84l.44-.63h.87zm-1 .55H105v.59h3.55zm0 1.23H105v.58h3.55zm-1.46-2.93h-.57a3.92 3.92 0 0 1-.83 1.07h2.13a3.51 3.51 0 0 1-.69-1.08zm1.95 6.15l-.66-1.69h1.14l.66 1.69zm3-7.78v-1.15l2.26.83v1.15zm0 2.44v-1.13l2.26.8v1.18zm0 5.45V18a3.13 3.13 0 0 0 1.3-2.5h1.13a4.42 4.42 0 0 1-2.43 3.97zm7.88 0l-.21-.68c-1 .5-1.87.56-4.94.56v-1.2h.62l.94-2.76h-1.56v-1.14h2.56v-1.87H115v-1.14h2.29v-.81h1.19v.81h2.3v1.14h-2.3v1.87H121v1.14h-3.46l-1 2.75a6.05 6.05 0 0 0 2.69-.43l-.5-1.62H120l1.07 3.4zm7.58-3.84a7.4 7.4 0 0 1-4.59 3.86V18.1a5.41 5.41 0 0 0 3.86-5.1v-2.59H128v2.42a5.64 5.64 0 0 0 3.91 5.27v1.37a7 7 0 0 1-4.45-3.86zm16.44-4.28v3.84h-1.08v-.26a17.27 17.27 0 0 1-3.21.19v-.82h.24v-2.95h-.24v-.76h4.59v.76zm-4.29 7.94v-.79h3.92v-.62h-3.68v-.8h3.68v-.65h-3.92v-.77h9v.77h-3.92v.65h3.67v.8h-3.67v.62h3.92v.79zm3.21-7.94h-1.91v.59h1.91zm0 1.17h-1.91v.62h1.91zm0 1.19h-1.91v.58a9.22 9.22 0 0 0 1.91-.15zm1.77 1.48v-4.6h3.8v4.6zm2.74-3.63h-1.67v2.66h1.67zm4.67 7.62h-1.34a9.89 9.89 0 0 0 .64-4.1v-4.24h1.26V15a10.7 10.7 0 0 1-.56 4.16zm3.62 0h-1.92v-8.35h1.27v7.07h.81c1.26 0 2.16-1 2.16-3.35v-2.21h1.23v2.36c-.04 3.01-1.31 4.46-3.59 4.46zm10.46-7.01h-4.42V11h4.42a13.17 13.17 0 0 0 3.79-.4v1.22a14.07 14.07 0 0 1-3.79.33zm2.59 2.78v.18c0 2.44-1.38 4-4.9 4H162v-1.24h1.76c2.76 0 3.61-1.16 3.61-2.76v-.18h-5.74v-1.2h5.74v-1.2h1.27v1.2h1.45v1.2zm8.04 1.84V15.5c1.88 0 3-.85 3-2.56v-.73h-7.17V11H181v1.89c0 2.44-1.67 3.82-4.29 3.88zm-4.19 2.4v-1.25a2.91 2.91 0 0 0 2.78-3.18v-1h1.24v1.06a4.21 4.21 0 0 1-4.02 4.37zm18.85-5.53v.93h-7.44v-1l-.81.18v-1.22a4.84 4.84 0 0 0 3.7-2.12h1.63a4.78 4.78 0 0 0 3.7 2.12v1.27c-.25-.04-.52-.1-.78-.16zm-.54 5.83l-.32-.66a15.12 15.12 0 0 1-5.28.54h-2.11v-1.08h.88l.71-1.58h-1.59v-1.11h9v1.11h-6.02l-.73 1.58a18.9 18.9 0 0 0 4.7-.39l-.39-.85H191l1.14 2.44zm-3.2-8a6.28 6.28 0 0 1-3.17 2h6.33a6.21 6.21 0 0 1-3.16-2.01z"/><path class="cls-3" d="M84.58 53.48h-1c-1.46 0-1.93-.76-1.93-1.68v-.25h.88v.21c0 .46.24.84 1 .84h1c.79 0 1-.32 1-.68v-.18c0-.49-.29-.63-.91-.67L83.2 51c-1-.05-1.5-.38-1.5-1.25v-.27c0-.86.53-1.46 1.84-1.46h1.08c1.13 0 1.76.59 1.76 1.54v.26h-.87v-.16c0-.46-.24-.77-.93-.77h-1c-.73 0-1 .27-1 .62v.15c0 .42.21.55.89.6l1.44.1c1.1.08 1.6.47 1.6 1.29v.41c-.01.81-.51 1.42-1.93 1.42zm5.57-3.58v2c0 .51.22.7.7.7h.9v.84h-1.1c-.94 0-1.35-.49-1.35-1.44v-2.1h-1v-.85h1v-1h.85v1h1.75v.85zm3.33 3.54v-1h1.1v1zm2.75 0v-5.39h.88v4.52h3.33v.87zm9.15 0V53a1.49 1.49 0 0 1-1.06.42h-.42c-1.1 0-1.61-.61-1.61-1.72v-2.65h.84v2.6c0 .63.25 1 .89 1h.34a.91.91 0 0 0 1-1v-2.6h.84v4.39zm5.41.02H110a1.52 1.52 0 0 1-1.67-1.74v-.94A1.56 1.56 0 0 1 110 49h.85a1.49 1.49 0 0 1 1.67 1.57v.19h-.89v-.13c0-.4-.23-.8-.94-.8h-.55a.88.88 0 0 0-1 1v.84a.86.86 0 0 0 1 .95h.55c.6 0 .94-.29.94-.8v-.14h.89v.21a1.48 1.48 0 0 1-1.73 1.57zm3.75-4.39v-1h.86v1zm0 4.37v-3.87h.84v3.87zm7.23.01A.82.82 0 0 1 121 53a1.55 1.55 0 0 1-1.17.4H119c-1.09 0-1.53-.55-1.53-1.25V52c0-.88.61-1.26 1.7-1.26h1.66v-.32c0-.36-.27-.63-.9-.63h-.66c-.51 0-.76.18-.79.52h-.86c0-.82.55-1.27 1.64-1.27h.67c1.21 0 1.74.53 1.74 1.38v1.71c0 .25.08.44.27.44h.06v.89zm-.94-2h-1.64c-.68 0-.87.23-.87.57v.12c0 .4.36.54.78.54h.7c.65 0 .9-.19 1-.54zm3.48-1.81h-.61a1 1 0 0 0 .43-.85h-.55v-1h1.09v1a1.23 1.23 0 0 1-.36.85zm4.61 3.82h-1.18c-1.16 0-1.49-.57-1.49-1.38h.89c0 .35.07.64.78.64h.85c.56 0 .8-.14.8-.55v-.09c0-.31-.17-.53-.82-.53h-.94c-1 0-1.5-.37-1.5-1.16v-.13c0-.64.41-1.23 1.53-1.23H129c1 0 1.45.45 1.45 1.27h-.9c0-.37-.23-.52-.76-.52H128c-.63 0-.81.23-.81.48v.1c0 .3.13.49.79.49h1c1.13 0 1.49.52 1.49 1.21v.12c.02.82-.42 1.28-1.55 1.28zm12.91-.02v-2.39h-2.72v2.39h-.88v-5.39h.88v2.13h2.72v-2.13h.88v5.39zm5.32.02h-.66a1.51 1.51 0 0 1-1.73-1.71v-1a1.54 1.54 0 0 1 1.73-1.75h.66a1.54 1.54 0 0 1 1.73 1.71v1a1.5 1.5 0 0 1-1.73 1.75zm.89-2.65c0-.65-.38-.92-1-.92h-.39c-.68 0-1 .29-1 .92v.87c0 .65.37.92 1 .92h.35c.64 0 1-.25 1-.92zm5.42 2.65h-1.18c-1.16 0-1.49-.57-1.49-1.38h.89c0 .35.07.64.78.64h.85c.56 0 .8-.14.8-.55v-.09c0-.31-.17-.53-.82-.53h-.94c-1 0-1.5-.37-1.5-1.16v-.13c0-.64.41-1.23 1.53-1.23h1.13c1 0 1.45.45 1.45 1.27h-.9c0-.37-.23-.52-.76-.52h-.72c-.63 0-.82.23-.82.48v.1c0 .3.14.49.79.49h1c1.13 0 1.49.52 1.49 1.21v.12c-.04.82-.46 1.28-1.58 1.28zm6.02-.02H159a1.53 1.53 0 0 1-1-.44v1.26h-.86v-5.2h.86v.42a1.56 1.56 0 0 1 1.07-.42h.44a1.55 1.55 0 0 1 1.69 1.71v1a1.51 1.51 0 0 1-1.72 1.67zm.86-2.57a.88.88 0 0 0-1-1h-.43a1 1 0 0 0-1 1v.7a.94.94 0 0 0 1 1h.43a.85.85 0 0 0 1-1zm2.9-1.8v-1h.86v1zm0 4.37v-3.87h.84v3.87zm4.67-3.54v2c0 .51.21.7.69.7h.91v.84h-1.1c-.94 0-1.35-.49-1.35-1.44v-2.1h-1v-.85h1v-1h.85v1h1.74v.85zm7.99 3.55a.82.82 0 0 1-.75-.41 1.55 1.55 0 0 1-1.17.4h-.84c-1.09 0-1.53-.55-1.53-1.25V52c0-.88.61-1.26 1.7-1.26H175v-.32c0-.36-.27-.63-.91-.63h-.65c-.51 0-.77.18-.79.52h-.86c.05-.82.55-1.27 1.64-1.27h.66c1.22 0 1.75.53 1.75 1.38v1.71c0 .25.08.44.27.44v.89zm-.93-2h-1.64c-.68 0-.88.23-.88.57v.12c0 .4.37.54.79.54h.7c.65 0 .9-.19 1-.54zm3.17 1.99v-5.39h.86v5.39z"/></svg>